<svg width="12" height="12" viewBox="0 0 20 20" fill="none" xmlns="http://www.w3.org/2000/svg">
<path fill-rule="evenodd" clip-rule="evenodd" d="M10 0.25C4.61522 0.25 0.25 4.61522 0.25 10C0.25 15.3848 4.61522 19.75 10 19.75C15.3848 19.75 19.75 15.3848 19.75 10C19.75 4.61522 15.3848 0.25 10 0.25ZM7 5.5C6.58579 5.5 6.25 5.83579 6.25 6.25C6.25 6.66421 6.58579 7 7 7H8.5C9.47966 7 10.3131 7.62611 10.622 8.5H7C6.58579 8.5 6.25 8.83579 6.25 9.25C6.25 9.66421 6.58579 10 7 10H10.622C10.3131 10.8739 9.47966 11.5 8.5 11.5H7C6.69665 11.5 6.42318 11.6827 6.30709 11.963C6.191 12.2432 6.25517 12.5658 6.46967 12.7803L9.46967 15.7803C9.76256 16.0732 10.2374 16.0732 10.5303 15.7803C10.8232 15.4874 10.8232 15.0126 10.5303 14.7197L8.79892 12.9883C10.4785 12.8558 11.8468 11.6168 12.175 10H13C13.4142 10 13.75 9.66421 13.75 9.25C13.75 8.83579 13.4142 8.5 13 8.5H12.175C12.0625 7.94584 11.8278 7.43606 11.5003 7H13C13.4142 7 13.75 6.66421 13.75 6.25C13.75 5.83579 13.4142 5.5 13 5.5H7Z" fill="#000"/>
</svg>
