<svg width="15" height="16" viewBox="0 0 15 16" fill="none" xmlns="http://www.w3.org/2000/svg">
<path d="M9.03451 0.681328L5.92351 0.673828H5.92201C2.64151 0.673828 0.0720062 3.24408 0.0720062 6.52533C0.0720062 9.59883 2.46151 11.9298 5.67076 12.0528V14.9238C5.67076 15.0048 5.70376 15.1383 5.76076 15.2261C5.86726 15.3948 6.04876 15.4863 6.23476 15.4863C6.33826 15.4863 6.44251 15.4578 6.53626 15.3978C6.73426 15.2718 11.391 12.2928 12.6023 11.2683C14.0288 10.0608 14.8823 8.29083 14.8845 6.53433V6.52158C14.88 3.24633 12.312 0.681328 9.03451 0.680578V0.681328ZM11.8748 10.4103C11.0243 11.1303 8.22826 12.9641 6.79576 13.8926V11.5023C6.79576 11.1918 6.54451 10.9398 6.23326 10.9398H5.93626C3.19126 10.9398 1.19776 9.08283 1.19776 6.52533C1.19776 3.87483 3.27376 1.79883 5.92276 1.79883L9.03301 1.80633H9.03451C11.6835 1.80633 13.7595 3.88083 13.761 6.52833C13.7588 7.96083 13.0545 9.41133 11.8755 10.4103H11.8748Z" fill="#5B7083"/>
</svg>
