<svg width="14" height="12" viewBox="0 0 18 16" fill="none" xmlns="http://www.w3.org/2000/svg">
<path d="M12 3.5C12 5.15685 10.6569 6.5 9 6.5C7.34315 6.5 6 5.15685 6 3.5C6 1.84315 7.34315 0.5 9 0.5C10.6569 0.5 12 1.84315 12 3.5Z" fill="#000000"/>
<path d="M17 5.5C17 6.60457 16.1046 7.5 15 7.5C13.8954 7.5 13 6.60457 13 5.5C13 4.39543 13.8954 3.5 15 3.5C16.1046 3.5 17 4.39543 17 5.5Z" fill="#000000"/>
<path d="M13 12.5C13 10.2909 11.2091 8.5 9 8.5C6.79086 8.5 5 10.2909 5 12.5V15.5H13V12.5Z" fill="#000000"/>
<path d="M5 5.5C5 6.60457 4.10457 7.5 3 7.5C1.89543 7.5 1 6.60457 1 5.5C1 4.39543 1.89543 3.5 3 3.5C4.10457 3.5 5 4.39543 5 5.5Z" fill="#000000"/>
<path d="M15 15.5V12.5C15 11.4459 14.7282 10.4552 14.2507 9.59432C14.4902 9.53275 14.7413 9.5 15 9.5C16.6569 9.5 18 10.8431 18 12.5V15.5H15Z" fill="#000000"/>
<path d="M3.74926 9.59432C3.27185 10.4552 3 11.4459 3 12.5V15.5H0V12.5C0 10.8431 1.34315 9.5 3 9.5C3.25871 9.5 3.50977 9.53275 3.74926 9.59432Z" fill="#000000"/>
</svg>
