<svg width="12" height="14" viewBox="0 0 14 16" fill="none" xmlns="http://www.w3.org/2000/svg">
<path d="M6 1C6 0.447715 6.44772 0 7 0C7.55228 0 8 0.447715 8 1V6.5C8 6.77614 8.22386 7 8.5 7C8.77614 7 9 6.77614 9 6.5V2C9 1.44772 9.44771 1 10 1C10.5523 1 11 1.44772 11 2V6.5C11 6.77614 11.2239 7 11.5 7C11.7761 7 12 6.77614 12 6.5V4C12 3.44772 12.4477 3 13 3C13.5523 3 14 3.44772 14 4V9C14 12.866 10.866 16 7 16C3.13401 16 0 12.866 0 9V7C0 6.44772 0.447715 6 1 6C1.55228 6 2 6.44772 2 7V9.5C2 9.77614 2.22386 10 2.5 10C2.77614 10 3 9.77614 3 9.5V2C3 1.44772 3.44772 1 4 1C4.55228 1 5 1.44772 5 2V6.5C5 6.77614 5.22386 7 5.5 7C5.77614 7 6 6.77614 6 6.5V1Z" fill="#000000"/>
</svg>
