<svg width="47" height="47" viewBox="0 0 47 47" fill="none" xmlns="http://www.w3.org/2000/svg">
<path d="M11.853 28.9827C11.853 24.8248 15.2237 21.4541 19.3816 21.4541V34.2758H11.853V28.9827Z" fill="url(#paint0_linear_1166_9126)"/>
<path d="M35.7896 18.3577C35.7896 22.5156 32.4189 25.8862 28.261 25.8862V13.0645H35.7896V18.3577Z" fill="url(#paint1_linear_1166_9126)"/>
<ellipse cx="17.089" cy="17.4771" rx="3.30582" ry="3.30183" fill="url(#paint2_linear_1166_9126)"/>
<path d="M20.3945 20.0648C20.3945 16.2533 23.4843 13.1636 27.2957 13.1636V27.3748C27.2957 31.1862 24.206 34.276 20.3945 34.276V20.0648Z" fill="url(#paint3_linear_1166_9126)"/>
<mask id="path-6-outside-1_1166_9126" maskUnits="userSpaceOnUse" x="28.2505" y="28.2397" width="7" height="7" fill="black">
<rect fill="white" x="28.2505" y="28.2397" width="7" height="7"/>
<path d="M29.3585 33.9971L30.4018 32.4928C30.2239 32.5413 30.0487 32.5656 29.8761 32.5656C29.4394 32.5656 29.0862 32.4065 28.8166 32.0884C28.5524 31.7703 28.4203 31.3874 28.4203 30.9399C28.4203 30.4277 28.5821 30.0098 28.9056 29.6863C29.2291 29.3628 29.6443 29.201 30.1511 29.201C30.6418 29.201 31.0516 29.3574 31.3805 29.6701C31.7094 29.9829 31.8738 30.3873 31.8738 30.8833C31.8738 31.3794 31.6743 31.9239 31.2753 32.517L29.9732 34.45L29.3585 33.9971ZM29.2534 30.9157C29.2534 31.196 29.3343 31.4387 29.496 31.6436C29.6632 31.8485 29.8842 31.9509 30.1592 31.9509C30.4342 31.9509 30.6526 31.8485 30.8143 31.6436C30.9815 31.4333 31.065 31.1853 31.065 30.8995C31.065 30.6137 30.9842 30.3684 30.8224 30.1635C30.6607 29.9586 30.4396 29.8562 30.1592 29.8562C29.8842 29.8562 29.6632 29.9613 29.496 30.1716C29.3343 30.3819 29.2534 30.6299 29.2534 30.9157ZM32.9563 30.0341V29.3305H34.493V34.2397H33.66V30.0341H32.9563Z"/>
</mask>
<path d="M29.3585 33.9971L30.4018 32.4928C30.2239 32.5413 30.0487 32.5656 29.8761 32.5656C29.4394 32.5656 29.0862 32.4065 28.8166 32.0884C28.5524 31.7703 28.4203 31.3874 28.4203 30.9399C28.4203 30.4277 28.5821 30.0098 28.9056 29.6863C29.2291 29.3628 29.6443 29.201 30.1511 29.201C30.6418 29.201 31.0516 29.3574 31.3805 29.6701C31.7094 29.9829 31.8738 30.3873 31.8738 30.8833C31.8738 31.3794 31.6743 31.9239 31.2753 32.517L29.9732 34.45L29.3585 33.9971ZM29.2534 30.9157C29.2534 31.196 29.3343 31.4387 29.496 31.6436C29.6632 31.8485 29.8842 31.9509 30.1592 31.9509C30.4342 31.9509 30.6526 31.8485 30.8143 31.6436C30.9815 31.4333 31.065 31.1853 31.065 30.8995C31.065 30.6137 30.9842 30.3684 30.8224 30.1635C30.6607 29.9586 30.4396 29.8562 30.1592 29.8562C29.8842 29.8562 29.6632 29.9613 29.496 30.1716C29.3343 30.3819 29.2534 30.6299 29.2534 30.9157ZM32.9563 30.0341V29.3305H34.493V34.2397H33.66V30.0341H32.9563Z" fill="url(#paint4_linear_1166_9126)"/>
<path d="M29.3585 33.9971L29.3301 33.9774L29.3109 34.005L29.338 34.025L29.3585 33.9971ZM30.4018 32.4928L30.4303 32.5125L30.4844 32.4344L30.3927 32.4594L30.4018 32.4928ZM28.8166 32.0884L28.79 32.1105L28.7903 32.1107L28.8166 32.0884ZM28.9056 29.6863L28.8811 29.6619L28.9056 29.6863ZM31.3805 29.6701L31.3566 29.6952L31.3805 29.6701ZM31.2753 32.517L31.304 32.5364L31.304 32.5363L31.2753 32.517ZM29.9732 34.45L29.9527 34.4779L29.9817 34.4993L30.0019 34.4693L29.9732 34.45ZM29.496 31.6436L29.4689 31.665L29.4692 31.6654L29.496 31.6436ZM30.8143 31.6436L30.7872 31.622L30.7872 31.6221L30.8143 31.6436ZM30.8224 30.1635L30.7953 30.1849L30.8224 30.1635ZM29.496 30.1716L29.4689 30.1501L29.4686 30.1505L29.496 30.1716ZM29.3869 34.0168L30.4303 32.5125L30.3734 32.4731L29.3301 33.9774L29.3869 34.0168ZM30.3927 32.4594C30.2176 32.5072 30.0454 32.531 29.8761 32.531V32.6002C30.052 32.6002 30.2302 32.5754 30.4109 32.5261L30.3927 32.4594ZM29.8761 32.531C29.449 32.531 29.1057 32.376 28.843 32.066L28.7903 32.1107C29.0668 32.437 29.4298 32.6002 29.8761 32.6002V32.531ZM28.8432 32.0663C28.5846 31.7549 28.4549 31.3801 28.4549 30.9399H28.3857C28.3857 31.3948 28.5202 31.7856 28.79 32.1105L28.8432 32.0663ZM28.4549 30.9399C28.4549 30.4357 28.6138 30.027 28.9301 29.7108L28.8811 29.6619C28.5503 29.9927 28.3857 30.4197 28.3857 30.9399H28.4549ZM28.9301 29.7108C29.2464 29.3945 29.6524 29.2356 30.1511 29.2356V29.1665C29.6362 29.1665 29.2119 29.3311 28.8811 29.6619L28.9301 29.7108ZM30.1511 29.2356C30.6337 29.2356 31.0347 29.3891 31.3566 29.6952L31.4043 29.6451C31.0684 29.3257 30.6499 29.1665 30.1511 29.1665V29.2356ZM31.3566 29.6952C31.678 30.0008 31.8392 30.3958 31.8392 30.8833H31.9084C31.9084 30.3788 31.7407 29.965 31.4043 29.6451L31.3566 29.6952ZM31.8392 30.8833C31.8392 31.3701 31.6434 31.9079 31.2466 32.4977L31.304 32.5363C31.7052 31.9399 31.9084 31.3887 31.9084 30.8833H31.8392ZM31.2466 32.4977L29.9445 34.4307L30.0019 34.4693L31.304 32.5364L31.2466 32.4977ZM29.9937 34.4222L29.379 33.9693L29.338 34.025L29.9527 34.4779L29.9937 34.4222ZM29.2188 30.9157C29.2188 31.2032 29.3019 31.4535 29.4689 31.665L29.5232 31.6221C29.3666 31.4238 29.288 31.1889 29.288 30.9157H29.2188ZM29.4692 31.6654C29.6432 31.8787 29.8743 31.9855 30.1592 31.9855V31.9163C29.8941 31.9163 29.6831 31.8182 29.5228 31.6217L29.4692 31.6654ZM30.1592 31.9855C30.4441 31.9855 30.6728 31.8787 30.8415 31.665L30.7872 31.6221C30.6324 31.8182 30.4243 31.9163 30.1592 31.9163V31.9855ZM30.8414 31.6651C31.0137 31.4483 31.0996 31.1925 31.0996 30.8995H31.0305C31.0305 31.178 30.9492 31.4183 30.7872 31.622L30.8414 31.6651ZM31.0996 30.8995C31.0996 30.6067 31.0166 30.3536 30.8496 30.1421L30.7953 30.1849C30.9517 30.3831 31.0305 30.6207 31.0305 30.8995H31.0996ZM30.8496 30.1421C30.6807 29.9282 30.4493 29.8216 30.1592 29.8216V29.8907C30.4299 29.8907 30.6406 29.989 30.7953 30.1849L30.8496 30.1421ZM30.1592 29.8216C29.874 29.8216 29.6428 29.9313 29.4689 30.1501L29.5231 30.1931C29.6835 29.9913 29.8945 29.8907 30.1592 29.8907V29.8216ZM29.4686 30.1505C29.3018 30.3673 29.2188 30.6229 29.2188 30.9157H29.288C29.288 30.6369 29.3667 30.3964 29.5234 30.1927L29.4686 30.1505ZM32.9563 30.0341H32.9217V30.0687H32.9563V30.0341ZM32.9563 29.3305V29.2959H32.9217V29.3305H32.9563ZM34.493 29.3305H34.5276V29.2959H34.493V29.3305ZM34.493 34.2397V34.2743H34.5276V34.2397H34.493ZM33.66 34.2397H33.6254V34.2743H33.66V34.2397ZM33.66 30.0341H33.6945V29.9995H33.66V30.0341ZM32.9909 30.0341V29.3305H32.9217V30.0341H32.9909ZM32.9563 29.365H34.493V29.2959H32.9563V29.365ZM34.4584 29.3305V34.2397H34.5276V29.3305H34.4584ZM34.493 34.2052H33.66V34.2743H34.493V34.2052ZM33.6945 34.2397V30.0341H33.6254V34.2397H33.6945ZM33.66 29.9995H32.9563V30.0687H33.66V29.9995Z" fill="url(#paint5_linear_1166_9126)" mask="url(#path-6-outside-1_1166_9126)"/>
<defs>
<linearGradient id="paint0_linear_1166_9126" x1="11.853" y1="21.4541" x2="19.9163" y2="21.7781" gradientUnits="userSpaceOnUse">
<stop stop-color="#F9BC2E"/>
<stop offset="0.132392" stop-color="#E29A1E"/>
<stop offset="0.302201" stop-color="#FFCD38"/>
<stop offset="0.728712" stop-color="#F0AF30"/>
<stop offset="0.834676" stop-color="#E29A1E"/>
<stop offset="0.960427" stop-color="#FFCD38"/>
<stop offset="1" stop-color="#DD931A"/>
</linearGradient>
<linearGradient id="paint1_linear_1166_9126" x1="35.7896" y1="25.8862" x2="27.7263" y2="25.5622" gradientUnits="userSpaceOnUse">
<stop stop-color="#F9BC2E"/>
<stop offset="0.132392" stop-color="#E29A1E"/>
<stop offset="0.302201" stop-color="#FFCD38"/>
<stop offset="0.728712" stop-color="#F0AF30"/>
<stop offset="0.834676" stop-color="#E29A1E"/>
<stop offset="0.960427" stop-color="#FFCD38"/>
<stop offset="1" stop-color="#DD931A"/>
</linearGradient>
<linearGradient id="paint2_linear_1166_9126" x1="13.7832" y1="14.1753" x2="20.8427" y2="14.659" gradientUnits="userSpaceOnUse">
<stop stop-color="#F9BC2E"/>
<stop offset="0.132392" stop-color="#E29A1E"/>
<stop offset="0.302201" stop-color="#FFCD38"/>
<stop offset="0.728712" stop-color="#F0AF30"/>
<stop offset="0.834676" stop-color="#E29A1E"/>
<stop offset="0.960427" stop-color="#FFCD38"/>
<stop offset="1" stop-color="#DD931A"/>
</linearGradient>
<linearGradient id="paint3_linear_1166_9126" x1="20.3945" y1="13.1636" x2="27.7941" y2="13.3291" gradientUnits="userSpaceOnUse">
<stop stop-color="#F9BC2E"/>
<stop offset="0.132392" stop-color="#E29A1E"/>
<stop offset="0.302201" stop-color="#FFCD38"/>
<stop offset="0.728712" stop-color="#F0AF30"/>
<stop offset="0.834676" stop-color="#E29A1E"/>
<stop offset="0.960427" stop-color="#FFCD38"/>
<stop offset="1" stop-color="#DD931A"/>
</linearGradient>
<linearGradient id="paint4_linear_1166_9126" x1="28.2505" y1="27.2397" x2="36.7925" y2="27.8243" gradientUnits="userSpaceOnUse">
<stop stop-color="#F9BC2E"/>
<stop offset="0.132392" stop-color="#E29A1E"/>
<stop offset="0.302201" stop-color="#FFCD38"/>
<stop offset="0.728712" stop-color="#F0AF30"/>
<stop offset="0.834676" stop-color="#E29A1E"/>
<stop offset="0.960427" stop-color="#FFCD38"/>
<stop offset="1" stop-color="#DD931A"/>
</linearGradient>
<linearGradient id="paint5_linear_1166_9126" x1="28.2505" y1="27.2397" x2="36.7925" y2="27.8243" gradientUnits="userSpaceOnUse">
<stop stop-color="#F9BC2E"/>
<stop offset="0.132392" stop-color="#E29A1E"/>
<stop offset="0.302201" stop-color="#FFCD38"/>
<stop offset="0.728712" stop-color="#F0AF30"/>
<stop offset="0.834676" stop-color="#E29A1E"/>
<stop offset="0.960427" stop-color="#FFCD38"/>
<stop offset="1" stop-color="#DD931A"/>
</linearGradient>
</defs>
</svg>
