<svg width="52" height="53" viewBox="0 0 52 53" fill="none" xmlns="http://www.w3.org/2000/svg">
<ellipse cx="25.7309" cy="26.4811" rx="25.7309" ry="25.7311" fill="url(#paint0_linear_938_6343)"/>
<path d="M16.125 36.3753C19.5 36.3753 24 35.2503 24 27.3753V18.3753C24 16.9691 23.1495 16.1062 21.75 16.1253H17.25C15.8438 16.1253 15 16.9691 15 18.3438V25.1253C15 26.5316 15.8438 27.3753 17.25 27.3753C18.375 27.3753 18.375 27.3753 18.375 28.5003V29.6253C18.375 30.7503 17.25 31.8753 16.125 31.8753C15 31.8753 15 31.8843 15 33.0352V35.2503C15 36.3753 15 36.3753 16.125 36.3753Z" stroke="white" stroke-width="2.25" stroke-linecap="round" stroke-linejoin="round"/>
<path d="M29.625 36.3753C33 36.3753 37.5 35.2503 37.5 27.3753V18.3753C37.5 16.9691 36.6484 16.1062 35.25 16.1253H30.75C29.3438 16.1253 28.5 16.9691 28.5 18.3438V25.1253C28.5 26.5316 29.3438 27.3753 30.75 27.3753H31.5938C31.5938 29.9066 31.875 31.8753 28.5 31.8753V35.2503C28.5 36.3753 28.5 36.3753 29.625 36.3753Z" stroke="white" stroke-width="2.25" stroke-linecap="round" stroke-linejoin="round"/>
<defs>
<linearGradient id="paint0_linear_938_6343" x1="0" y1="0.75" x2="54.9484" y2="4.51049" gradientUnits="userSpaceOnUse">
<stop stop-color="#F9BC2E"/>
<stop offset="0.132392" stop-color="#E29A1E"/>
<stop offset="0.302201" stop-color="#FFCD38"/>
<stop offset="0.728712" stop-color="#F0AF30"/>
<stop offset="0.834676" stop-color="#E29A1E"/>
<stop offset="0.960427" stop-color="#FFCD38"/>
<stop offset="1" stop-color="#DD931A"/>
</linearGradient>
</defs>
</svg>
