<svg width="12" height="13" viewBox="0 0 16 17" fill="none" xmlns="http://www.w3.org/2000/svg">
<path fill-rule="evenodd" clip-rule="evenodd" d="M16 6.5C16 9.81371 13.3137 12.5 10 12.5C9.39383 12.5 8.80865 12.4101 8.25707 12.2429L6 14.5H4V16.5H0V12.5L4.25707 8.24293C4.08989 7.69135 4 7.10617 4 6.5C4 3.18629 6.68629 0.5 10 0.5C13.3137 0.5 16 3.18629 16 6.5ZM10 2.5C9.44771 2.5 9 2.94772 9 3.5C9 4.05228 9.44771 4.5 10 4.5C11.1046 4.5 12 5.39543 12 6.5C12 7.05228 12.4477 7.5 13 7.5C13.5523 7.5 14 7.05228 14 6.5C14 4.29086 12.2091 2.5 10 2.5Z" fill="#000000"/>
</svg>
