<svg width="15" height="16" viewBox="0 0 15 16" fill="none" xmlns="http://www.w3.org/2000/svg">
<path d="M11.6475 4.60231L7.89751 0.852312C7.67776 0.632563 7.32151 0.632563 7.10251 0.852312L3.35251 4.60231C3.13201 4.82206 3.13201 5.17831 3.35251 5.39731C3.57301 5.61631 3.92776 5.61781 4.14751 5.39731L6.93751 2.60731V10.2498C6.93751 10.5603 7.18951 10.8123 7.50001 10.8123C7.81051 10.8123 8.06251 10.5603 8.06251 10.2498V2.60731L10.8525 5.39731C10.962 5.50756 11.106 5.56231 11.25 5.56231C11.394 5.56231 11.538 5.50831 11.6475 5.39731C11.8673 5.17756 11.8673 4.82206 11.6475 4.60231V4.60231Z" fill="#5B7083"/>
<path d="M13.281 15.458H1.719C0.771 15.458 0 14.687 0 13.739V9.5C0 9.1895 0.252 8.9375 0.5625 8.9375C0.873 8.9375 1.125 9.1895 1.125 9.5V13.739C1.125 14.0668 1.39125 14.333 1.719 14.333H13.281C13.6088 14.333 13.875 14.0668 13.875 13.739V9.5C13.875 9.1895 14.127 8.9375 14.4375 8.9375C14.748 8.9375 15 9.1895 15 9.5V13.739C15 14.687 14.229 15.458 13.281 15.458V15.458Z" fill="#5B7083"/>
</svg>
