<svg width="12" height="12" viewBox="0 0 31 31" fill="none" xmlns="http://www.w3.org/2000/svg">
<path fill-rule="evenodd" clip-rule="evenodd" d="M15.5233 0.141477L15.5 0L15.4767 0.141477C14.1653 0.205619 13.0788 5.6789 12.8621 12.8621C5.6789 13.0788 0.205619 14.1653 0.141477 15.4767L0 15.5L0.141477 15.5233C0.205619 16.8347 5.6789 17.9212 12.8621 18.1379C13.0788 25.3211 14.1653 30.7943 15.4767 30.8585L15.5 31L15.5233 30.8585C16.8347 30.7943 17.9212 25.3211 18.1379 18.1379C25.3211 17.9212 30.7943 16.8347 30.8585 15.5233L31 15.5L30.8585 15.4767C30.7943 14.1653 25.3211 13.0788 18.1379 12.8621C17.9212 5.6789 16.8347 0.205619 15.5233 0.141477ZM15.359 0.855809C15.2462 0.999969 15.1162 1.22981 14.979 1.56266C14.6816 2.2842 14.4016 3.36233 14.1621 4.73628C13.8 6.81376 13.5409 9.50529 13.4369 12.5255L15.359 0.855809ZM17.5631 12.5254L15.641 0.855809C15.7538 0.999969 15.8838 1.22981 16.021 1.56266C16.3183 2.2842 16.5983 3.36233 16.8378 4.73628C17.2 6.81376 17.4591 9.50528 17.5631 12.5254ZM12.5253 13.4369C9.50523 13.5409 6.81375 13.8 4.73628 14.1621C3.36233 14.4016 2.2842 14.6816 1.56266 14.979C1.22981 15.1162 0.99997 15.2462 0.85581 15.359L12.5253 13.4369ZM0.85581 15.641L12.5253 17.5631C9.50523 17.4591 6.81375 17.2 4.73628 16.8379C3.36233 16.5984 2.2842 16.3184 1.56266 16.021C1.22981 15.8838 0.99997 15.7538 0.85581 15.641ZM13.4369 18.4745L15.359 30.1442C15.2462 30 15.1162 29.7702 14.979 29.4373C14.6816 28.7158 14.4016 27.6377 14.1621 26.2637C13.8 24.1862 13.5409 21.4947 13.4369 18.4745ZM15.641 30.1442L17.5631 18.4746C17.4591 21.4947 17.2 24.1862 16.8378 26.2637C16.5983 27.6377 16.3183 28.7158 16.021 29.4373C15.8838 29.7702 15.7538 30 15.641 30.1442ZM18.4747 17.5631L30.1442 15.641C30.0001 15.7538 29.7702 15.8838 29.4373 16.021C28.7158 16.3184 27.6377 16.5984 26.2638 16.8379C24.1863 17.2 21.4948 17.4591 18.4747 17.5631ZM30.1442 15.359L18.4747 13.4369C21.4948 13.5409 24.1863 13.8 26.2638 14.1621C27.6377 14.4016 28.7158 14.6816 29.4373 14.979C29.7702 15.1162 30.0001 15.2462 30.1442 15.359Z" fill="white"/>
</svg>
