<?xml version="1.0" encoding="utf-8" standalone="yes"?>
<!DOCTYPE svg PUBLIC "-//W3C//DTD SVG 1.1//EN" "http://www.w3.org/Graphics/SVG/1.1/DTD/svg11.dtd">
<svg width="774" height="628" viewBox="0 0 774 628" style="fill:none;stroke:none;fill-rule:evenodd;clip-rule:evenodd;stroke-linecap:round;stroke-linejoin:round;stroke-miterlimit:1.5;" version="1.1" xmlns="http://www.w3.org/2000/svg" xmlns:xlink="http://www.w3.org/1999/xlink"><style class="text-font-style fontImports" data-font-family="Shantell Sans">@import url('https://fonts.googleapis.com/css2?family=Shantell+Sans:wght@300..800&amp;display=block');</style><g id="items" style="isolation: isolate"><g id="blend" style="mix-blend-mode: normal"><g id="g-root-sy_5_line_huo5f71o9z0g0-fill" data-item-order="-77707" transform="translate(284, 272)"></g><g id="g-root-sy_4_line_huo5f71o9z0g1-fill" data-item-order="-77701" transform="translate(284, 272)"></g><g id="g-root-sy_1_line_huo5f71o9z0g2-fill" data-item-order="-77695" transform="translate(284, 56)"></g><g id="g-root-sy_2_line_8z156b1o9z18r-fill" data-item-order="-77689" transform="translate(284, 164)"></g><g id="g-root-sy_3_line_8z156b1o9z18s-fill" data-item-order="-77683" transform="translate(283.9997863769531, 272)"></g><g id="g-root-sy_0_line_8z156b1o9z18t-fill" data-item-order="-77679" transform="translate(212, 272)"></g><g id="g-root-tx_property_1cy15df1o9z1u5-fill" data-item-order="0" transform="translate(452, 152)"><g id="tx_property_1cy15df1o9z1u5-fill" stroke="none" fill="#f4f4f4"><g><text style="font: bold 20px &quot;Shantell Sans&quot;, cursive; white-space: pre;" font-weight="bold" font-size="20px" font-family="'Shantell Sans', cursive"><tspan x="12" y="35.5" dominant-baseline="ideographic">Property Listing</tspan></text></g></g></g><g id="g-root-tx_earnaddi_4j7n1v1o9z212-fill" data-item-order="0" transform="translate(452, 512)"><g id="tx_earnaddi_4j7n1v1o9z212-fill" stroke="none" fill="#f4f4f4"><g><text style="font: 20px &quot;Shantell Sans&quot;, cursive; white-space: pre;" font-size="20px" font-family="'Shantell Sans', cursive"><tspan x="12" y="35.5" dominant-baseline="ideographic">Earn additional points for </tspan><tspan x="12" y="59.5" dominant-baseline="ideographic">each verification step.</tspan></text></g></g></g><g id="g-root-tx_earnupto_1lto5mb1o9z11g-fill" data-item-order="0" transform="translate(452, 188)"><g id="tx_earnupto_1lto5mb1o9z11g-fill" stroke="none" fill="#f4f4f4"><g><text style="font: 20px &quot;Shantell Sans&quot;, cursive; white-space: pre;" font-size="20px" font-family="'Shantell Sans', cursive"><tspan x="12" y="35.5" dominant-baseline="ideographic">Earn up to 100,000 points </tspan><tspan x="12" y="59.5" dominant-baseline="ideographic">by adding properties.</tspan></text></g></g></g><g id="g-root-ic_5_de6usz1ojezgt-fill" data-item-order="0" transform="translate(404, 254)"></g><g id="g-root-tx_howtomax_18iu4c31o9yzgo-fill" data-item-order="0" transform="translate(-4, 272)"><g id="tx_howtomax_18iu4c31o9yzgo-fill" stroke="none" fill="#f4f4f4"><g><text style="font: bold 25px &quot;Shantell Sans&quot;, cursive; white-space: pre;" font-weight="bold" font-size="25px" font-family="'Shantell Sans', cursive"><tspan x="61.64" y="41.5" dominant-baseline="ideographic">How to </tspan><tspan x="47.45" y="71.5" dominant-baseline="ideographic">maximize </tspan><tspan x="15.55" y="101.5" dominant-baseline="ideographic">reward points </tspan><tspan x="33.76" y="131.5" dominant-baseline="ideographic">on iProp91?</tspan></text></g></g></g><g id="g-root-ic_home_1lt0d4j1ojgcni-fill" data-item-order="0" transform="translate(404, 146)"></g><g id="g-root-tx_earn5000_1cy15df1o9z1u6-fill" data-item-order="0" transform="translate(452, 80)"><g id="tx_earn5000_1cy15df1o9z1u6-fill" stroke="none" fill="#f4f4f4"><g><text style="font: 20px &quot;Shantell Sans&quot;, cursive; white-space: pre;" font-size="20px" font-family="'Shantell Sans', cursive"><tspan x="12" y="35.5" dominant-baseline="ideographic">Earn 5,000 points instantly </tspan><tspan x="12" y="59.5" dominant-baseline="ideographic">upon registration.</tspan></text></g></g></g><g id="g-root-tx_signupbo_18iu4c31o9yzgn-fill" data-item-order="0" transform="translate(452, 44)"><g id="tx_signupbo_18iu4c31o9yzgn-fill" stroke="none" fill="#f4f4f4"><g><text style="font: bold 20px &quot;Shantell Sans&quot;, cursive; white-space: pre;" font-weight="bold" font-size="20px" font-family="'Shantell Sans', cursive"><tspan x="12" y="35.5" dominant-baseline="ideographic">Sign-Up Bonus</tspan></text></g></g></g><g id="g-root-tx_ownerscl_1lto5mb1o9z11f-fill" data-item-order="0" transform="translate(452, 260)"><g id="tx_ownerscl_1lto5mb1o9z11f-fill" stroke="none" fill="#f4f4f4"><g><text style="font: bold 20px &quot;Shantell Sans&quot;, cursive; white-space: pre;" font-weight="bold" font-size="20px" font-family="'Shantell Sans', cursive"><tspan x="12" y="35.5" dominant-baseline="ideographic">Owners' Club</tspan></text></g></g></g><g id="g-root-tx_receiveu_1q9hnqr1o9z096-fill" data-item-order="0" transform="translate(452, 296)"><g id="tx_receiveu_1q9hnqr1o9z096-fill" stroke="none" fill="#f4f4f4"><g><text style="font: 20px &quot;Shantell Sans&quot;, cursive; white-space: pre;" font-size="20px" font-family="'Shantell Sans', cursive"><tspan x="12" y="35.5" dominant-baseline="ideographic">Receive up to 50,000 points </tspan><tspan x="12" y="59.5" dominant-baseline="ideographic">by joining the club.</tspan></text></g></g></g><g id="g-root-ic_conf_1lto5mb1oa0efg-fill" data-item-order="0" transform="translate(404, 362)"></g><g id="g-root-tx_transact_1q9hnqr1o9z095-fill" data-item-order="0" transform="translate(452, 368)"><g id="tx_transact_1q9hnqr1o9z095-fill" stroke="none" fill="#f4f4f4"><g><text style="font: bold 20px &quot;Shantell Sans&quot;, cursive; white-space: pre;" font-weight="bold" font-size="20px" font-family="'Shantell Sans', cursive"><tspan x="12" y="35.5" dominant-baseline="ideographic">Transaction Rewards</tspan></text></g></g></g><g id="g-root-tx_earnupto_40m0j1o9yznk-fill" data-item-order="0" transform="translate(452, 404)"><g id="tx_earnupto_40m0j1o9yznk-fill" stroke="none" fill="#f4f4f4"><g><text style="font: 20px &quot;Shantell Sans&quot;, cursive; white-space: pre;" font-size="20px" font-family="'Shantell Sans', cursive"><tspan x="12" y="35.5" dominant-baseline="ideographic">Earn up to 500,000 points </tspan><tspan x="12" y="59.5" dominant-baseline="ideographic">through transactions.</tspan></text></g></g></g><g id="g-root-ic_badg_1430m7n1o9z08x-fill" data-item-order="0" transform="translate(404, 470)"></g><g id="g-root-tx_verifica_4j7n1v1o9z213-fill" data-item-order="0" transform="translate(452, 476)"><g id="tx_verifica_4j7n1v1o9z213-fill" stroke="none" fill="#f4f4f4"><g><text style="font: bold 20px &quot;Shantell Sans&quot;, cursive; white-space: pre;" font-weight="bold" font-size="20px" font-family="'Shantell Sans', cursive"><tspan x="12" y="35.5" dominant-baseline="ideographic">Verification Incentives</tspan></text></g></g></g><g id="g-root-ic_gift_8ydcoj1ojhr0n-fill" data-item-order="0" transform="translate(404, 38)"></g><g id="g-root-ic_plac_18fofhv1ojj6rk-fill" data-item-order="0" transform="translate(68, 200)"></g><g id="g-root-sy_5_line_huo5f71o9z0g0-stroke" data-item-order="-77707" transform="translate(284, 272)"><g id="sy_5_line_huo5f71o9z0g0-stroke" fill="none" stroke-linecap="round" stroke-linejoin="round" stroke-miterlimit="4" stroke="#f4f4f4" stroke-width="2"><g><path d="M 116 226C 96.7 226.1 77.3 227.1 58 226C 44.7 225.2 34.5 215.2 34 202C 33.5 191.5 35.7 180.9 34 170.6C 31.9 158.6 33 146.2 34 134C 34.8 123.2 32.9 112.3 34 101.5C 35 90.3 35.1 78.8 34 67.6C 32.8 56.4 35.1 45.1 34 34C 32.6 20.8 23.2 10.4 10 10"></path><path d="M 116 226L 57.95 226C 44.7 226 33.95 215.25 33.95 202L 33.95 33.95C 33.95 20.72 23.23 10 10 10"></path><path d="M 110 232.5C 112.2 230.3 113.8 227.5 116.5 226C 113.9 224.3 112.5 221.3 110 219.5" stroke-dasharray="none"></path><path d="M 110 232.5L 116.5 226L 110 219.5" stroke-dasharray="none"></path></g></g></g><g id="g-root-sy_4_line_huo5f71o9z0g1-stroke" data-item-order="-77701" transform="translate(284, 272)"><g id="sy_4_line_huo5f71o9z0g1-stroke" fill="none" stroke-linecap="round" stroke-linejoin="round" stroke-miterlimit="4" stroke="#f4f4f4" stroke-width="2"><g><path d="M 116 118C 96.7 117.7 77.3 118 58 118C 44.7 118 35.4 107.2 34 94C 32.8 83.9 33.6 73.7 34 63.5C 34.3 53.7 34.4 43.8 34 34C 33.4 20.7 23.1 8.4 10 10"></path><path d="M 116 118L 57.95 118C 44.7 118 33.95 107.25 33.95 94L 33.95 33.95C 33.95 20.72 23.23 10 10 10"></path><path d="M 110 124.5C 112.2 122.4 114.4 120.2 116.5 118C 114.6 115.6 112.7 112.9 110 111.5" stroke-dasharray="none"></path><path d="M 110 124.5L 116.5 118L 110 111.5" stroke-dasharray="none"></path></g></g></g><g id="g-root-sy_1_line_huo5f71o9z0g2-stroke" data-item-order="-77695" transform="translate(284, 56)"><g id="sy_1_line_huo5f71o9z0g2-stroke" fill="none" stroke-linecap="round" stroke-linejoin="round" stroke-miterlimit="4" stroke="#f4f4f4" stroke-width="2"><g><path d="M 116 10C 97 8.6 77.9 11.1 59 10C 45.7 9.2 36.8 20.9 35 34C 30.9 63.7 35.7 94 35 123.9C 34.3 150 36.5 176.1 35 202.1C 34.2 215.3 24.2 227.1 11 226C 10.7 226 10.3 226 10 226"></path><path d="M 116 10L 58.95 10C 45.7 10 34.95 20.75 34.95 34L 34.95 202.05C 34.95 215.28 24.23 226 11 226L 10 226"></path><path d="M 110 16.5C 112.7 15 114.1 11.9 116.5 10C 114.5 7.7 111.5 6.2 110 3.5" stroke-dasharray="none"></path><path d="M 110 16.5L 116.5 10L 110 3.5" stroke-dasharray="none"></path></g></g></g><g id="g-root-sy_2_line_8z156b1o9z18r-stroke" data-item-order="-77689" transform="translate(284, 164)"><g id="sy_2_line_8z156b1o9z18r-stroke" fill="none" stroke-linecap="round" stroke-linejoin="round" stroke-miterlimit="4" stroke="#f4f4f4" stroke-width="2"><g><path d="M 116 10C 97 9.9 78 10.3 59 10C 45.7 9.8 36 20.8 35 34C 33.3 54 34.4 74 35 94.1C 35.3 107.3 24.1 116.2 11 118C 10.7 118 10.3 118.1 10 118"></path><path d="M 116 10L 58.95 10C 45.7 10 34.95 20.75 34.95 34L 34.95 94.05C 34.95 107.28 24.23 118 11 118L 10 118"></path><path d="M 110 16.5C 112.2 14.4 114.2 12 116.5 10C 114.2 7.9 111.5 6.2 110 3.5" stroke-dasharray="none"></path><path d="M 110 16.5L 116.5 10L 110 3.5" stroke-dasharray="none"></path></g></g></g><g id="g-root-sy_3_line_8z156b1o9z18s-stroke" data-item-order="-77683" transform="translate(283.9997863769531, 272)"><g id="sy_3_line_8z156b1o9z18s-stroke" fill="none" stroke-linecap="round" stroke-linejoin="round" stroke-miterlimit="4" stroke="#f4f4f4" stroke-width="2"><g><path d="M 116.000214 10C 98.800214 11.3 81.500214 9.5 64.300214 10C 46.200214 10.5 28.100214 10.2 10.000214 10"></path><path d="M 116.000214 10L 10.000214 10"></path><path d="M 110.000214 16.5C 111.200214 13.7 114.600214 12.4 116.500214 10C 114.300214 7.9 112.000214 5.8 110.000214 3.5" stroke-dasharray="none"></path><path d="M 110.000214 16.5L 116.500214 10L 110.000214 3.5" stroke-dasharray="none"></path></g></g></g><g id="g-root-sy_0_line_8z156b1o9z18t-stroke" data-item-order="-77679" transform="translate(212, 272)"><g id="sy_0_line_8z156b1o9z18t-stroke" fill="none" stroke-linecap="round" stroke-linejoin="round" stroke-miterlimit="4" stroke="#f4f4f4" stroke-width="2"><g><path d="M 82 10C 58 10.4 34 8.9 10 10"></path><path d="M 82 10L 10 10"></path></g></g></g><g id="g-root-tx_property_1cy15df1o9z1u5-stroke" data-item-order="0" transform="translate(452, 152)"></g><g id="g-root-tx_earnaddi_4j7n1v1o9z212-stroke" data-item-order="0" transform="translate(452, 512)"></g><g id="g-root-tx_earnupto_1lto5mb1o9z11g-stroke" data-item-order="0" transform="translate(452, 188)"></g><g id="g-root-ic_5_de6usz1ojezgt-stroke" data-item-order="0" transform="translate(404, 254)"><g id="ic_5_de6usz1ojezgt-stroke" fill="none" stroke-linecap="round" stroke-linejoin="round" stroke-miterlimit="4" stroke="#f4f4f4" stroke-width="2"><g><path d="M 14.5 17.200001C 23.349998 18.549999 32.5 16.75 41.5 17.200001C 41.5 17.200001 44.650002 17.200001 44.5 20.200001C 44.199997 25.299999 44.800003 30.700001 44.5 35.949997C 44.5 35.949997 44.349998 39.699997 41.5 38.949997C 32.799999 36.400002 23.349998 40.900002 14.5 38.949997C 14.5 38.949997 12.25 38.800003 11.5 35.949997C 10.3 30.700001 11.2 25.299999 11.5 20.200001C 11.5 20.200001 11.5 17.049999 14.5 17.200001M 26.349998 28.299999C 24.400002 29.799999 23.200001 32.349998 20.950001 33.549999C 19.15 31.900002 17.799999 29.650002 15.7 28.299999C 17.5 26.5 19.15 24.700001 20.950001 22.900002C 23.200001 24.099998 25.150002 26.049999 26.349998 28.299999M 32.5 22.450001C 34.900002 21.549999 37.599998 21.85 40 22.450001M 32.650002 34.300003C 35.199997 34.150002 37.75 33.549999 40.150002 34.300003M 30.25 29.650002C 33.549999 29.349998 37 28.75 40.150002 29.650002M 14.5 17.125L 41.5 17.125C 41.5 17.125 44.5 17.125 44.5 20.125L 44.5 35.875C 44.5 35.875 44.5 38.875 41.5 38.875L 14.5 38.875C 14.5 38.875 11.5 38.875 11.5 35.875L 11.5 20.125C 11.5 20.125 11.5 17.125 14.5 17.125M 26.300352 28.24295L 20.997051 33.546253L 15.693751 28.24295L 20.997051 22.93965ZM 32.5 22.375L 40 22.375M 32.686001 34.371998L 40.186001 34.371998M 30.271 29.695L 40.186001 29.695"></path></g></g></g><g id="g-root-tx_howtomax_18iu4c31o9yzgo-stroke" data-item-order="0" transform="translate(-4, 272)"></g><g id="g-root-ic_home_1lt0d4j1ojgcni-stroke" data-item-order="0" transform="translate(404, 146)"><g id="ic_home_1lt0d4j1ojgcni-stroke" fill="none" stroke-linecap="round" stroke-linejoin="round" stroke-miterlimit="4" stroke="#f4f4f4" stroke-width="2"><g><path d="M 24.25 45.25C 20.35 44.650002 16.15 44.5 12.25 45.25C 11.5 45.400002 10.45 44.5 10.75 43.75C 13.75 33.700001 12.4 22.599998 10.75 12.25C 10.6 11.5 11.35 10.75 12.25 10.75C 18.85 11.05 25.599998 10.3 32.200001 10.75C 32.650002 10.75 32.950001 11.05 33.25 11.2C 35.5 12.55 37 14.8 38.800003 16.75C 39.099998 17.049999 39.099998 17.35 39.25 17.799999C 39.699997 19.450001 39.550003 21.1 39.25 22.75M 16.75 30.849998C 18.549999 29.799999 19.299999 27.25 21.25 26.5C 21.700001 26.200001 22.150002 26.049999 22.75 26.349998C 23.650002 26.5 24.400002 26.950001 24.849998 27.700001C 25.299999 28.150002 26.200001 27.849998 26.5 27.549999C 28 26.049999 29.650002 24.849998 30.700001 23.049999M 16.75 19.75C 16.6 24.700001 15.25 29.950001 16.75 34.75C 18.700001 34.150002 20.950001 34 22.75 34.75M 28.75 34.449997C 29.200001 37.599998 28.900002 40.599998 28.75 43.75C 28.75 44.650002 29.5 45.400002 30.25 45.25C 33.700001 44.650002 37.449997 44.349998 40.75 45.25C 41.5 45.400002 42.400002 44.5 42.25 43.75C 41.650002 40.75 43.300003 37.449997 42.25 34.449997M 25.75 37C 28.599998 34.449997 32.049999 32.5 34.599998 29.5C 35.050003 29.049999 35.949997 29.200001 36.400002 29.5C 39.550003 31.75 41.800003 35.199997 45.25 37M 37.75 45.25C 36.25 45.550003 34.75 44.949997 33.25 45.25C 33.849998 43.900002 32.950001 42.25 33.25 40.75C 33.549999 39.550003 34.300003 38.800003 35.5 38.5C 36.699997 38.199997 37.599998 39.550003 37.75 40.75C 37.900002 42.25 37.900002 43.75 37.75 45.25M 24.25 45.25L 12.25 45.25C 11.421573 45.25 10.75 44.578426 10.75 43.75L 10.75 12.25C 10.75 11.421573 11.421573 10.75 12.25 10.75L 32.185001 10.75C 32.585869 10.751664 32.969391 10.913716 33.25 11.2L 38.800003 16.75C 39.081322 17.031239 39.239414 17.412708 39.239502 17.810499L 39.239502 22.75M 16.75 30.868L 21.181 26.437C 21.618036 26.000864 22.301876 25.933109 22.816002 26.275002L 24.9055 27.668501C 25.432465 28.019411 26.135832 27.938229 26.569 27.4765L 30.671501 23.094999M 16.745501 19.754499L 16.745501 34.754501L 22.745499 34.754501M 28.75 34.466499L 28.75 43.75C 28.75 44.578426 29.421572 45.25 30.25 45.25L 40.75 45.25C 41.578426 45.25 42.25 44.578426 42.25 43.75L 42.25 34.466499M 25.75 37L 34.530998 29.570499C 35.090298 29.097176 35.909702 29.097176 36.469002 29.570499L 45.25 37M 37.75 45.25L 33.25 45.25L 33.25 40.75C 33.25 39.507362 34.257362 38.5 35.5 38.5C 36.742641 38.5 37.75 39.507362 37.75 40.75Z"></path></g></g></g><g id="g-root-tx_earn5000_1cy15df1o9z1u6-stroke" data-item-order="0" transform="translate(452, 80)"></g><g id="g-root-tx_signupbo_18iu4c31o9yzgn-stroke" data-item-order="0" transform="translate(452, 44)"></g><g id="g-root-tx_ownerscl_1lto5mb1o9z11f-stroke" data-item-order="0" transform="translate(452, 260)"></g><g id="g-root-tx_receiveu_1q9hnqr1o9z096-stroke" data-item-order="0" transform="translate(452, 296)"></g><g id="g-root-ic_conf_1lto5mb1oa0efg-stroke" data-item-order="0" transform="translate(404, 362)"><g id="ic_conf_1lto5mb1oa0efg-stroke" fill="none" stroke-linecap="round" stroke-linejoin="round" stroke-miterlimit="4" stroke="#f4f4f4" stroke-width="2"><g><path d="M 10 10M 44.800003 35.650002C 44.349998 35.199997 43.900002 34.599998 43.300003 34.150002C 43.300003 34.150002 43 32.200001 42.550003 31.599998C 41.050003 29.650002 38.5 28.75 37.449997 26.5C 37 25.599998 35.650002 25.900002 34.900002 26.5C 34.599998 26.799999 34.599998 27.400002 34.449997 27.849998C 34.300003 28.299999 34.599998 28.599998 34.900002 29.049999C 34.449997 28.599998 34.150002 28.150002 33.700001 27.849998C 32.950001 27.25 31.599998 26.950001 31.150002 27.849998C 31 28.150002 30.700001 28.599998 30.700001 29.049999C 30.549999 29.5 30.849998 29.950001 31.150002 30.25C 31 30.099998 30.700001 29.950001 30.549999 29.650002C 29.950001 28.900002 28.599998 28.75 28 29.650002C 27.849998 30.099998 27.400002 30.400002 27.549999 30.849998C 27.549999 31.299999 27.700001 31.75 28 32.049999C 28.299999 32.349998 28.450001 32.5 28.599998 32.799999C 28.150002 31.900002 26.650002 31.900002 26.200001 32.799999C 25.900002 33.099998 25.75 33.549999 25.599998 34C 25.599998 34.449997 25.900002 34.75 26.200001 35.199997C 26.5 35.949997 27.549999 36.400002 28 37.150002C 27.549999 37.900002 27.25 38.650002 26.950001 39.550003C 26.799999 40.449997 27.400002 41.349998 28 42.099998C 29.650002 43.900002 33.099998 45.550003 35.650002 44.800003M 28 37.150002C 28.75 37.599998 29.349998 38.349998 29.950001 38.949997M 29.950001 34C 29.5 33.700001 29.049999 33.099998 28.599998 32.799999M 32.349998 31.450001C 31.900002 31.150002 31.450001 30.700001 31.150002 30.25M 11.2 20.35C 11.65 20.799999 12.4 21.25 12.7 21.85C 12.7 21.85 13 23.650002 13.45 24.400002C 14.65 26.349998 17.35 27.400002 18.549999 29.5C 19 30.25 20.65 30.400002 21.1 29.5C 21.25 29.049999 21.4 28.599998 21.549999 28.150002C 21.700001 27.849998 21.4 27.25 21.1 26.950001C 21.4 27.400002 22 27.700001 22.299999 28.150002C 22.900002 29.049999 24.099998 28.75 24.849998 28.150002C 25.150002 28 25.299999 27.400002 25.299999 26.950001C 25.450001 26.5 25.150002 26.200001 24.849998 25.75C 25 25.900002 25.150002 26.200001 25.450001 26.349998C 26.349998 26.950001 27.400002 27.099998 28 26.349998C 28.299999 26.049999 28.450001 25.599998 28.450001 25.150002C 28.599998 24.700001 28.299999 24.25 28 23.950001C 27.700001 23.650002 27.549999 23.5 27.400002 23.200001C 27.849998 24.099998 29.049999 23.799999 29.799999 23.200001C 30.25 23.049999 30.549999 22.450001 30.400002 22C 30.25 21.549999 30.25 21.1 29.799999 20.799999C 29.200001 20.200001 28.75 19.299999 28 18.85C 28.599998 18.1 29.349998 17.35 29.049999 16.450001C 28.75 15.55 28.599998 14.65 28 13.9C 26.5 11.95 22.900002 10.9 20.35 11.2M 28 18.85C 27.25 18.4 26.799999 17.5 26.049999 17.049999M 26.049999 22C 26.5 22.450001 27.099998 22.75 27.400002 23.200001M 23.650002 24.549999C 23.950001 24.849998 24.549999 25.150002 24.849998 25.75M 31.75 13C 32.200001 12.7 32.349998 12.25 32.650002 11.8C 32.799999 11.65 33.099998 11.65 33.400002 11.65C 33.549999 11.5 33.849998 11.65 34 11.8C 34.300003 12.85 35.199997 13.45 35.949997 14.2C 36.099998 14.35 36.400002 14.5 36.699997 14.35C 37.599998 13.9 38.650002 13.6 39.699997 13.75C 39.849998 13.75 40.150002 13.75 40.300003 13.9C 40.599998 13.9 40.599998 14.2 40.599998 14.5C 41.050003 15.4 41.050003 16.450001 40.900002 17.5C 40.900002 17.799999 41.199997 18.1 41.5 18.1C 42.400002 18.4 43.300003 18.85 44.199997 19.299999C 44.5 19.450001 44.5 19.6 44.650002 19.9C 44.800003 20.049999 44.650002 20.200001 44.650002 20.5C 44.5 21.549999 43.300003 22.150002 43 23.049999C 43 23.349998 42.849998 23.650002 43 23.950001C 43.599998 24.849998 44.199997 25.599998 44.650002 26.5C 44.650002 26.799999 44.650002 26.950001 44.650002 27.25C 44.650002 27.400002 44.349998 27.549999 44.199997 27.700001C 44.050003 27.849998 43.75 27.849998 43.449997 28M 24.25 43C 24.099998 43.449997 23.5 43.75 23.349998 44.199997C 23.200001 44.349998 22.900002 44.349998 22.75 44.5C 22.450001 44.5 22.150002 44.349998 22.150002 44.199997C 21.700001 43.300003 20.65 42.699997 20.049999 41.800003C 19.9 41.650002 19.6 41.5 19.299999 41.650002C 18.4 42.099998 17.35 41.949997 16.299999 42.25C 16.15 42.400002 15.85 42.25 15.7 42.099998C 15.55 41.949997 15.25 41.800003 15.4 41.5C 15.55 40.599998 15.4 39.550003 15.1 38.5C 15.1 38.199997 14.95 38.050003 14.65 37.900002C 13.75 37.300003 12.7 37.150002 11.8 36.699997C 11.65 36.550003 11.5 36.400002 11.35 36.25C 11.2 35.949997 11.35 35.650002 11.5 35.5C 11.8 34.599998 12.7 33.849998 13 32.950001C 13.15 32.650002 13.15 32.349998 13 32.049999C 12.55 31.150002 11.95 30.400002 11.5 29.5C 11.35 29.200001 11.35 29.049999 11.35 28.75C 11.35 28.599998 11.65 28.450001 11.8 28.299999C 11.95 28.150002 12.25 28 12.55 28M 10 10M 44.810501 35.701L 43.280502 34.171001C 43.280502 34.171001 43.150002 32.160999 42.586002 31.606001L 37.448502 26.535999C 36.751614 25.84824 35.631386 25.84824 34.934498 26.535999C 34.602695 26.863504 34.41592 27.310286 34.41592 27.776501C 34.41592 28.242712 34.602695 28.689493 34.934498 29.016998L 33.677498 27.776501C 32.980282 27.08955 31.860718 27.08955 31.1635 27.776501C 30.831694 28.104006 30.64492 28.550785 30.64492 29.016998C 30.64492 29.483213 30.831694 29.929995 31.163498 30.2575L 30.536499 29.6395C 29.839613 28.95174 28.719385 28.95174 28.022499 29.6395C 27.690693 29.967005 27.503922 30.413786 27.503922 30.879999C 27.503922 31.346212 27.690693 31.792994 28.022499 32.120499L 28.6525 32.741501C 27.955435 32.052753 26.834064 32.052753 26.136999 32.741501C 25.805193 33.069004 25.618422 33.515785 25.618422 33.981998C 25.618422 34.448212 25.805193 34.894993 26.136999 35.222496L 28.022501 37.0825C 27.357105 37.737236 26.982113 38.631496 26.981499 39.564999C 26.981501 40.494999 27.356501 41.387497 28.022501 42.046001C 29.77 43.771 33.008499 44.975498 35.713001 44.7985M 28.021 37.081001L 29.9065 38.941002M 29.905001 33.979L 28.648001 32.738503M 32.420498 31.497999L 31.1635 30.2575M 11.1895 20.299L 12.7195 21.829C 12.7195 21.829 12.85 23.839001 13.414 24.393999L 18.5515 29.464001C 19.248386 30.15176 20.368614 30.15176 21.0655 29.464001C 21.397305 29.136494 21.584078 28.689713 21.584078 28.223499C 21.584078 27.757286 21.397305 27.310505 21.0655 26.983L 22.3225 28.223499C 23.019718 28.910452 24.139282 28.910452 24.836502 28.223499C 25.168304 27.895994 25.355078 27.449213 25.355078 26.983C 25.355078 26.516785 25.168304 26.070005 24.8365 25.7425L 25.463501 26.3605C 26.160387 27.04826 27.280613 27.04826 27.977499 26.3605C 28.309305 26.032993 28.496077 25.586212 28.496077 25.119999C 28.496077 24.653786 28.309305 24.207005 27.977499 23.879499L 27.3475 23.258499C 28.044565 23.947247 29.165934 23.947247 29.862999 23.258499C 30.194805 22.930994 30.381577 22.484213 30.381577 22.018C 30.381577 21.551786 30.194805 21.105005 29.862999 20.7775L 27.977499 18.9175C 28.642893 18.262762 29.017887 17.368504 29.018499 16.434999C 29.018499 15.505 28.643499 14.611 27.977499 13.954C 26.23 12.229 22.99 11.0245 20.286999 11.2M 27.980501 18.919001L 26.0935 17.059M 26.094999 22.021L 27.351999 23.261499M 23.5795 24.502001L 24.8365 25.7425M 31.7185 13L 32.7145 11.8555C 32.868557 11.678761 33.091637 11.577444 33.326092 11.577732C 33.560547 11.57802 33.783379 11.679883 33.937 11.857L 35.929001 14.149C 36.12574 14.37564 36.431667 14.474922 36.723999 14.407L 39.681999 13.723001C 39.91082 13.669947 40.151405 13.718836 40.34137 13.856993C 40.531334 13.995149 40.651974 14.208964 40.672001 14.443L 40.936001 17.4685C 40.961472 17.767126 41.150341 18.02704 41.426498 18.143499L 44.2225 19.328499C 44.440056 19.419849 44.606964 19.601524 44.679588 19.826027C 44.752213 20.050528 44.723335 20.295536 44.600502 20.497L 43.035999 23.101C 42.882484 23.357269 42.882484 23.677231 43.035999 23.9335L 44.600498 26.537498C 44.723835 26.738613 44.752991 26.983624 44.680294 27.208063C 44.607594 27.432503 44.440323 27.613892 44.222496 27.704498L 43.523502 28.001501M 24.322001 43L 23.326 44.147499C 23.171946 44.324238 22.948866 44.425556 22.714409 44.42527C 22.479952 44.42498 22.257122 44.323116 22.1035 44.146L 20.1115 41.852501C 19.91457 41.626152 19.608818 41.526924 19.3165 41.594498L 16.3585 42.279999C 16.129679 42.333054 15.889096 42.284164 15.699131 42.146008C 15.509166 42.007851 15.388529 41.794037 15.3685 41.560001L 15.1045 38.5345C 15.078702 38.235992 14.889942 37.976234 14.613999 37.859497L 11.8165 36.673C 11.599646 36.581287 11.43343 36.399754 11.361136 36.175674C 11.288844 35.951599 11.317631 35.707153 11.440001 35.506001L 13.0045 32.902C 13.158614 32.645359 13.158614 32.324642 13.0045 32.068001L 11.44 29.4655C 11.317631 29.264347 11.288844 29.019901 11.361136 28.795824C 11.43343 28.571745 11.599646 28.390213 11.8165 28.2985L 12.517 28"></path></g></g></g><g id="g-root-tx_transact_1q9hnqr1o9z095-stroke" data-item-order="0" transform="translate(452, 368)"></g><g id="g-root-tx_earnupto_40m0j1o9yznk-stroke" data-item-order="0" transform="translate(452, 404)"></g><g id="g-root-ic_badg_1430m7n1o9z08x-stroke" data-item-order="0" transform="translate(404, 470)"><g id="ic_badg_1430m7n1o9z08x-stroke" fill="none" stroke-linecap="round" stroke-linejoin="round" stroke-miterlimit="4" stroke="#f4f4f4" stroke-width="2"><g><path d="M 34 24.25C 31.299999 26.349998 30.400002 30.099998 27.849998 32.349998C 27.700001 32.650002 27.400002 32.799999 27.099998 32.799999C 26.799999 32.950001 26.349998 32.799999 26.200001 32.5C 24.849998 31.299999 23.5 30.25 22.450001 28.900002M 26.049999 11.65C 26.349998 11.05 27.25 10.75 28 10.75C 28.75 10.75 29.650002 11.05 29.950001 11.65C 30.400002 12.85 31.150002 13.9 32.200001 14.5C 32.950001 15.1 33.700001 15.4 34.449997 15.55C 35.650002 15.7 37 15.7 38.199997 15.1C 38.800003 14.8 39.849998 15.1 40.150002 15.85C 40.599998 16.450001 41.050003 17.049999 40.900002 17.799999C 40.75 19 41.050003 20.35 40.449997 21.549999C 40.150002 22.299999 40.599998 23.349998 41.5 23.799999C 42.550003 24.25 43.150002 25.599998 44.349998 26.049999C 44.949997 26.349998 44.949997 27.25 45.25 28C 45.550003 28.75 44.949997 29.5 44.349998 29.950001C 43.300003 30.700001 42.25 31.299999 41.5 32.200001C 40.900002 32.950001 40.599998 33.700001 40.449997 34.449997C 40.300003 35.650002 40.599998 37 40.900002 38.199997C 41.050003 38.949997 40.900002 39.849998 40.150002 40.150002C 39.550003 40.599998 38.949997 41.050003 38.199997 40.900002C 37 40.75 35.650002 40.300003 34.449997 40.449997C 33.700001 40.75 32.950001 40.900002 32.200001 41.5C 31.299999 42.099998 31 43.599998 29.950001 44.349998C 29.349998 44.800003 28.75 45.400002 28 45.25C 27.25 45.099998 26.650002 44.650002 26.049999 44.349998C 25 43.75 24.700001 42.25 23.799999 41.5C 23.049999 40.900002 22.299999 40.150002 21.549999 40.449997C 20.35 41.050003 19 40.75 17.799999 40.900002C 17.049999 41.050003 16.299999 40.75 15.85 40.150002C 15.4 39.550003 15.1 38.949997 15.1 38.199997C 14.95 37 15.7 35.650002 15.55 34.449997C 15.4 33.700001 15.1 32.950001 14.5 32.200001C 13.75 31.299999 12.25 31 11.65 29.950001C 11.35 29.349998 10.9 28.75 10.75 28C 10.6 27.25 11.2 26.650002 11.65 26.049999C 12.4 25.150002 13.6 24.400002 14.5 23.799999C 15.25 23.200001 15.55 22.299999 15.55 21.549999C 15.4 20.35 15.7 18.85 15.1 17.799999C 14.8 17.200001 15.25 16.299999 15.85 15.85C 16.299999 15.25 17.200001 14.8 17.799999 15.1C 19 15.55 20.35 15.55 21.549999 15.55C 22.299999 15.55 23.049999 15.1 23.799999 14.5C 24.700001 13.9 25.150002 12.55 26.049999 11.65M 34 24.25L 27.895 32.389C 27.695076 32.655514 27.389437 32.822273 27.057129 32.846153C 26.724819 32.870033 26.398476 32.748688 26.162498 32.5135L 22.4995 28.848999M 26.049999 11.6815C 26.523962 11.089218 27.241423 10.744451 28 10.744451C 28.758575 10.744451 29.476038 11.089218 29.949999 11.681499L 32.267502 14.566C 32.801769 15.230697 33.638268 15.576835 34.486 15.484L 38.163998 15.0835C 38.916149 15.003331 39.664162 15.267942 40.198586 15.803242C 40.733009 16.338539 40.996399 17.086985 40.915001 17.839001L 40.5145 21.515499C 40.422306 22.363461 40.768978 23.199883 41.434002 23.734001L 44.317001 26.049999C 44.908772 26.524281 45.253151 27.241627 45.253151 28C 45.253151 28.758375 44.908772 29.475719 44.317001 29.950001L 41.433998 32.267502C 40.768993 32.800972 40.422264 33.636963 40.5145 34.484505L 40.915001 38.162498C 40.997234 38.915123 40.733627 39.664421 40.198273 40.199776C 39.662922 40.73513 38.913624 40.998734 38.160999 40.9165L 34.483002 40.515999C 33.63512 40.424377 32.798965 40.770935 32.2645 41.435501L 29.950001 44.315502C 29.476038 44.907784 28.758575 45.252548 28 45.252548C 27.241423 45.252548 26.523962 44.907784 26.049999 44.315498L 23.7355 41.432499C 23.201035 40.767937 22.36488 40.421379 21.517 40.513L 17.839001 40.913498C 17.086376 40.995735 16.337078 40.732128 15.801723 40.196777C 15.266371 39.661423 15.002764 38.912125 15.085 38.1595L 15.4855 34.481499C 15.577737 33.633965 15.231009 32.79797 14.566 32.264503L 11.683 29.950001C 11.09123 29.475719 10.74685 28.758375 10.74685 28C 10.74685 27.241627 11.09123 26.524281 11.683 26.050001L 14.566 23.734001C 15.231024 23.199883 15.577695 22.363461 15.4855 21.515499L 15.085 17.839001C 15.003439 17.086407 15.267208 16.337378 15.802342 15.801951C 16.337479 15.266525 17.086361 15.002349 17.839001 15.0835L 21.517 15.484C 22.364731 15.576835 23.201231 15.230697 23.7355 14.566Z"></path></g></g></g><g id="g-root-tx_verifica_4j7n1v1o9z213-stroke" data-item-order="0" transform="translate(452, 476)"></g><g id="g-root-ic_gift_8ydcoj1ojhr0n-stroke" data-item-order="0" transform="translate(404, 38)"><g id="ic_gift_8ydcoj1ojhr0n-stroke" fill="none" stroke-linecap="round" stroke-linejoin="round" stroke-miterlimit="4" stroke="#f4f4f4" stroke-width="2"><g><path d="M 26.5 21.25C 23.650002 21.4 20.5 20.35 17.799999 21.25C 16.450001 21.700001 15.4 22.450001 15.25 23.799999C 14.5 28.900002 17.200001 34.449997 15.25 39.25C 17.65 38.650002 20.200001 39.099998 22.75 39.25C 22.75 40.900002 25.150002 41.650002 28 42.25C 30.849998 42.849998 32.950001 40.900002 33.25 39.25C 35.800003 39.25 38.5 40.150002 40.75 39.25C 40.449997 35.800003 40.599998 32.200001 40.75 28.75M 33.25 39.25C 33.400002 40.900002 30.849998 43 28 42.25C 25.150002 41.349998 22.150002 40.75 22.75 39.25C 19.6 38.650002 16.299999 39.550003 13 39.25C 12.4 39.25 11.95 39.550003 11.65 40C 11.5 40.449997 11.35 41.050003 11.8 41.5C 13.3 43.75 15.7 44.650002 18.4 45.25C 24.700001 46.449997 31.450001 46.900002 37.599998 45.25C 40.150002 44.5 43.449997 44.199997 44.199997 41.5C 44.5 41.050003 44.5 40.599998 44.349998 40C 44.050003 39.550003 43.599998 39.25 43 39.25C 39.849998 38.800003 36.550003 39.099998 33.25 39.25M 31 13.75C 35.050003 13.6 39.099998 13 43 13.75C 43 13.75 44.800003 13.75 44.5 15.25C 43.75 18.1 44.5 21.25 44.5 24.25C 44.5 24.25 44.349998 26.349998 43 25.75C 39.25 24.25 35.050003 25.450001 31 25.75C 31 25.75 29.650002 25.75 29.5 24.25C 29.200001 21.25 29.650002 18.25 29.5 15.25C 29.5 15.25 29.5 13.75 31 13.75M 37 13.75C 36.099998 12.4 34.300003 11.95 33.25 10.75M 37 13.75C 36.400002 17.65 37.75 21.85 37 25.75M 37 13.75C 38.349998 13 39.400002 11.65 40.75 10.75M 29.5 19.75C 34.300003 21.1 39.849998 21.4 44.5 19.75M 26.5 21.25L 17.749001 21.25C 16.368254 21.25 15.249171 22.369755 15.25 23.7505L 15.25 39.25L 22.75 39.25C 22.75 40.900002 25.1005 42.25 28 42.25C 30.8995 42.25 33.25 40.900002 33.25 39.25L 40.75 39.25L 40.75 28.75M 33.25 39.25C 33.25 40.900002 30.8995 42.25 28 42.25C 25.1005 42.25 22.75 40.900002 22.75 39.25L 13 39.25C 12.454009 39.249859 11.951064 39.546406 11.686888 40.024231C 11.422711 40.502056 11.439033 41.085686 11.7295 41.548C 13.179979 43.85207 15.711887 45.25 18.4345 45.250004L 37.565502 45.25C 40.28804 45.249714 42.81982 43.851856 44.2705 41.548004C 44.560966 41.085686 44.577286 40.502056 44.31311 40.024231C 44.048935 39.546406 43.54599 39.249859 43 39.25ZM 31 13.75L 43 13.75C 43 13.75 44.5 13.75 44.5 15.25L 44.5 24.25C 44.5 24.25 44.5 25.75 43 25.75L 31 25.75C 31 25.75 29.5 25.75 29.5 24.25L 29.5 15.25C 29.5 15.25 29.5 13.75 31 13.75M 37 13.75L 33.25 10.75M 37 13.75L 37 25.75M 37 13.75L 40.75 10.75M 29.5 19.75L 44.5 19.75"></path></g></g></g><g id="g-root-ic_plac_18fofhv1ojj6rk-stroke" data-item-order="0" transform="translate(68, 200)"><g id="ic_plac_18fofhv1ojj6rk-stroke" fill="none" stroke-linecap="round" stroke-linejoin="round" stroke-miterlimit="4" stroke="#f4f4f4" stroke-width="2"><g><path d="M 37.5 12.75C 38 12 39 11.25 40 11.25C 41 11.25 42.25 11.75 42.5 12.75C 44 19 49.25 24 51.5 30C 56 28.25 61 30.75 66 30C 67 29.75 68.25 30.5 68.5 31.75C 68.75 32.75 68.5 33.75 68 34.75C 64.5 39.25 59.5 42.5 55.75 46.75C 55.25 53.25 60.25 58.75 62 65C 62.25 66.25 62.25 67.75 61 68C 60 68.5 59 68.75 58 68.5C 51.75 66 46.25 61.75 40 59.25C 34 62 27 63.75 22 68.5C 21.25 69.25 20 68.5 19 68C 17.75 67.75 18 66.25 18 65C 17.5 58.5 22 52.75 24.25 46.75C 21.75 41.75 16.75 38 12 34.75C 11.25 34 10.75 32.5 11.5 31.75C 12.25 30.75 13 29.75 14 30C 19 30 24 28.25 28.5 30C 31.25 24 36.5 19.25 37.5 12.75M 43.75 48.75C 43 44.75 43 40.25 43.75 36.25M 43.75 36.25C 44.25 36.25 44.5 36.25 45 36.25C 47 36.25 49.5 38 48.75 40C 48 42 47 43.75 45 43.75C 44.5 43.75 44.25 43.75 43.75 43.75M 36.25 48.75C 35.5 45 35.75 41.25 36.25 37.5C 36.25 37 36 36.75 35.5 36.5C 35.25 36 34.5 36 34.25 36.5C 33.5 37.5 32.25 38 31.25 38.75M 33.75 48.75C 35.25 48.5 37.25 48.5 38.75 48.75M 37.449997 12.785C 37.949909 11.840271 38.93116 11.249343 40 11.249343C 41.06884 11.249343 42.050091 11.840271 42.550003 12.785L 51.399998 30L 65.900002 30C 67.040436 29.966938 68.084282 30.637119 68.5289 31.687834C 68.973518 32.738548 68.727776 33.95443 67.909996 34.75L 55.675003 46.677498L 61.975002 65.087502C 62.321011 66.184608 61.96656 67.381935 61.079086 68.113899C 60.191612 68.845856 58.948711 68.965973 57.9375 68.417496L 40 59.169998L 22.0625 68.419998C 21.050814 68.969231 19.806957 68.849037 18.919153 68.116257C 18.031351 67.383469 17.677523 66.184959 18.025 65.087494L 24.325001 46.677498L 12.09 34.75C 11.271459 33.953812 11.025966 32.736629 11.471906 31.685406C 11.917845 30.634184 12.963646 29.964781 14.105 30L 28.605 30ZM 43.75 48.75L 43.75 36.25M 43.75 36.25L 45 36.25C 47.071068 36.25 48.75 37.928932 48.75 40C 48.75 42.071068 47.071068 43.75 45 43.75L 43.75 43.75M 36.25 48.75L 36.25 37.5C 36.25 37.026535 35.982498 36.593708 35.559017 36.381966C 35.135536 36.170227 34.628773 36.215919 34.25 36.5L 31.25 38.75M 33.75 48.75L 38.75 48.75"></path></g></g></g></g></g><path id="wdcz88rh9n6ru" d="M65.283 12.757a.35.35 0 0 0 .584.157l5.203-5.141-6.183 3.523.396 1.461zm-2.216-11.7a.35.35 0 0 0-.522.305v3.111l3.276-1.868-2.754-1.548zm3.728 2.105l-4.25 2.421v2.445l6.391-3.644-2.141-1.222zm4.708 3.303a.35.35 0 0 0 0-.609l-1.592-.9-7.365 4.199v1.782a.35.35 0 0 0 .523.305l8.435-4.777z M44.542 2.513c0-.433.355-.783.792-.783s.792.35.792.783-.355.783-.792.783-.792-.35-.792-.783zm59.171 0c0-.433.355-.783.792-.783s.792.35.792.783-.355.783-.792.783-.792-.35-.792-.783zm-85.951 7.636h-1.27v-.487c-.276.201-.864.609-1.881.609-1.202 0-2.274-.794-2.137-2.078.118-1.106 1.153-1.584 1.848-1.727l2.17-.345c0-.539-.29-.956-1.064-1.006s-1.21.305-1.571 1.017l-1.124-.605c1.218-2.631 5.029-1.764 5.029.414v4.207zm-1.27-2.86c.006.396-.062 1.112-.819 1.59-.587.37-1.841.299-1.903-.395-.049-.555.461-.791.906-.898l1.816-.297zm72.662 2.86h-1.27v-.487c-.276.201-.864.609-1.881.609-1.202 0-2.274-.794-2.137-2.078.118-1.106 1.153-1.584 1.848-1.727l2.17-.345c0-.539-.29-.956-1.064-1.006s-1.21.305-1.571 1.017l-1.124-.605c1.218-2.631 5.029-1.764 5.029.414v4.207zm-1.27-2.86c.006.396-.062 1.112-.82 1.59-.587.37-1.841.299-1.903-.395-.049-.555.461-.791.906-.898l1.816-.297zM99.096 10.149H97.85v-8.45h1.246v4.895l2.68-2.559h1.738l-2.633 2.535 2.715 3.578h-1.556l-2.077-2.707-.867.844v1.863zm6.053-6.114h-1.255v6.113h1.255V4.035zm-59.2 0h-1.255v6.113h1.255V4.035zm5.584 6.113V1.697h1.255v2.695c.361-.346 1-.485 1.47-.485 1.452 0 2.477 1.082 2.457 2.448v3.792h-1.27v-3.68c0-.408-.214-1.339-1.315-1.339-.968 0-1.342.756-1.342 1.339v3.681h-1.255zm-4.76-4.894V4.039h.621a.45.45 0 0 0 .45-.45v-.855h1.251v1.305h1.309v1.215h-1.309v3.109c0 .293.105.664.648.664.365 0 .531-.035.736-.07v1.137s-.361.113-.857.113c-1.398 0-1.777-1.051-1.777-1.788V5.254h-1.071zM36.528 4.039h-1.394l2.191 6.106h1.125l1.234-3.918 1.238 3.918h1.129l2.188-6.106h-1.383l-1.359 3.93-1.256-3.93h-1.124l-1.242 3.957-1.348-3.957zM26.212 7.141c-.02 1.566 1.187 3.129 3.223 3.129 1.566 0 2.383-.918 2.734-1.719L31.172 8c-.315.399-.801 1.094-1.738 1.094-1.145 0-1.825-.781-1.891-1.52h4.625c.074-.284.148-.995-.03-1.559-.336-1.064-1.221-2.102-2.839-2.102s-3.088 1.152-3.088 3.227zm1.363-.75h3.348c-.055-.43-.566-1.301-1.623-1.301a1.79 1.79 0 0 0-1.725 1.301zm-8.758.75c.038 1.758 1.277 3.133 3.145 3.133 1.074 0 1.723-.477 1.961-.672v.547h1.242V1.703h-1.258v2.888c-.414-.36-1.062-.68-1.93-.68-1.91 0-3.198 1.473-3.16 3.23zm1.309-.08c0 1.119.723 1.978 1.836 1.978a1.88 1.88 0 0 0 1.94-1.904c0-1.371-1.011-1.99-1.972-1.99s-1.805.798-1.805 1.916zm76.683-.028C96.771 5.275 95.532 3.9 93.664 3.9c-1.074 0-1.723.477-1.961.672v-.547h-1.242v8.22h1.258V9.583c.414.36 1.063.68 1.93.68 1.91 0 3.198-1.473 3.16-3.23zm-1.309.08c0-1.119-.723-1.978-1.836-1.978a1.88 1.88 0 0 0-1.94 1.904c0 1.371 1.011 1.99 1.972 1.99S95.5 8.231 95.5 7.113zM106.441 10.173V4.036h1.254v.382c.361-.346 1-.485 1.47-.485 1.452 0 2.477 1.082 2.457 2.448v3.792h-1.27V6.492c0-.408-.214-1.339-1.315-1.339-.969 0-1.342.756-1.342 1.339v3.681h-1.254zm-30.383-.021V1.824h1.084l4.215 5.777V1.824h1.32v8.328h-1.094l-4.207-5.796v5.796h-1.319zM5.24 10.149H4V2.377h1.014l2.664 3.597 2.654-3.592h1.03v7.766h-1.256V4.762L7.678 8.068 5.24 4.742v5.407z" transform="translate(20, 594)" fill="#ababab88" stroke="none"></path></svg>