<svg width="75" height="69" viewBox="0 0 75 69" fill="none" xmlns="http://www.w3.org/2000/svg">
<g clip-path="url(#clip0_1152_6947)">
<path d="M0 49.4974C0 36.568 10.4813 26.0867 23.4107 26.0867V26.0867V65.9568H0V49.4974Z" fill="url(#paint0_linear_1152_6947)"/>
<path d="M74.4341 16.4593C74.4341 29.3887 63.9527 39.87 51.0234 39.87V39.87V-8.7738e-05H74.4341V16.4593Z" fill="url(#paint1_linear_1152_6947)"/>
<ellipse cx="16.2826" cy="13.7221" rx="10.2797" ry="10.2673" fill="url(#paint2_linear_1152_6947)"/>
<path d="M26.5625 21.7661C26.5625 9.91416 36.1704 0.306274 48.0223 0.306274V0.306274V44.4972C48.0223 56.3491 38.4144 65.957 26.5625 65.957V65.957V21.7661Z" fill="url(#paint3_linear_1152_6947)"/>
<mask id="path-5-outside-1_1152_6947" maskUnits="userSpaceOnUse" x="50.9915" y="49.0779" width="20" height="17" fill="black">
<rect fill="white" x="50.9915" y="49.0779" width="20" height="17"/>
<path d="M54.437 64.3234L57.6813 59.6456C57.128 59.7965 56.5831 59.8719 56.0465 59.8719C54.6885 59.8719 53.5903 59.3773 52.7519 58.3881C51.9304 57.3989 51.5196 56.2084 51.5196 54.8168C51.5196 53.224 52.0226 51.9246 53.0286 50.9186C54.0346 49.9126 55.3256 49.4097 56.9016 49.4097C58.4274 49.4097 59.7016 49.8959 60.7244 50.8683C61.7471 51.8408 62.2585 53.0983 62.2585 54.6408C62.2585 56.1833 61.6381 57.8767 60.3974 59.721L56.3483 65.7318L54.437 64.3234ZM54.11 54.7414C54.11 55.6132 54.3615 56.3677 54.8645 57.0048C55.3843 57.642 56.0717 57.9605 56.9268 57.9605C57.7819 57.9605 58.4609 57.642 58.9639 57.0048C59.4837 56.351 59.7435 55.5797 59.7435 54.6911C59.7435 53.8025 59.492 53.0396 58.989 52.4025C58.486 51.7653 57.7986 51.4468 56.9268 51.4468C56.0717 51.4468 55.3843 51.7737 54.8645 52.4276C54.3615 53.0815 54.11 53.8528 54.11 54.7414ZM65.6246 52.0001V49.812H70.403V65.0779H67.8126V52.0001H65.6246Z"/>
</mask>
<path d="M54.437 64.3234L57.6813 59.6456C57.128 59.7965 56.5831 59.8719 56.0465 59.8719C54.6885 59.8719 53.5903 59.3773 52.7519 58.3881C51.9304 57.3989 51.5196 56.2084 51.5196 54.8168C51.5196 53.224 52.0226 51.9246 53.0286 50.9186C54.0346 49.9126 55.3256 49.4097 56.9016 49.4097C58.4274 49.4097 59.7016 49.8959 60.7244 50.8683C61.7471 51.8408 62.2585 53.0983 62.2585 54.6408C62.2585 56.1833 61.6381 57.8767 60.3974 59.721L56.3483 65.7318L54.437 64.3234ZM54.11 54.7414C54.11 55.6132 54.3615 56.3677 54.8645 57.0048C55.3843 57.642 56.0717 57.9605 56.9268 57.9605C57.7819 57.9605 58.4609 57.642 58.9639 57.0048C59.4837 56.351 59.7435 55.5797 59.7435 54.6911C59.7435 53.8025 59.492 53.0396 58.989 52.4025C58.486 51.7653 57.7986 51.4468 56.9268 51.4468C56.0717 51.4468 55.3843 51.7737 54.8645 52.4276C54.3615 53.0815 54.11 53.8528 54.11 54.7414ZM65.6246 52.0001V49.812H70.403V65.0779H67.8126V52.0001H65.6246Z" fill="url(#paint4_linear_1152_6947)"/>
<path d="M54.437 64.3234L54.3486 64.2621L54.289 64.348L54.3732 64.41L54.437 64.3234ZM57.6813 59.6456L57.7696 59.7068L57.938 59.4641L57.653 59.5418L57.6813 59.6456ZM52.7519 58.3881L52.6692 58.4568L52.6699 58.4576L52.7519 58.3881ZM53.0286 50.9186L52.9525 50.8426L52.9525 50.8426L53.0286 50.9186ZM60.7244 50.8683L60.6503 50.9463L60.6503 50.9463L60.7244 50.8683ZM60.3974 59.721L60.4866 59.7811L60.4866 59.781L60.3974 59.721ZM56.3483 65.7318L56.2845 65.8183L56.3748 65.8849L56.4375 65.7919L56.3483 65.7318ZM54.8645 57.0048L54.7801 57.0715L54.7812 57.0728L54.8645 57.0048ZM58.9639 57.0048L58.8797 56.9379L58.8795 56.9382L58.9639 57.0048ZM58.989 52.4025L58.9046 52.4691L58.9046 52.4691L58.989 52.4025ZM54.8645 52.4276L54.7803 52.3607L54.7793 52.362L54.8645 52.4276ZM54.5253 64.3847L57.7696 59.7068L57.5929 59.5843L54.3486 64.2621L54.5253 64.3847ZM57.653 59.5418C57.1083 59.6904 56.5729 59.7644 56.0465 59.7644V59.9794C56.5933 59.9794 57.1477 59.9025 57.7096 59.7493L57.653 59.5418ZM56.0465 59.7644C54.7183 59.7644 53.6508 59.2824 52.834 58.3186L52.6699 58.4576C53.5297 59.4722 54.6586 59.9794 56.0465 59.9794V59.7644ZM52.8347 58.3194C52.0305 57.3511 51.6271 56.1856 51.6271 54.8168H51.4121C51.4121 56.2313 51.8303 57.4466 52.6692 58.4568L52.8347 58.3194ZM51.6271 54.8168C51.6271 53.2488 52.1213 51.978 53.1046 50.9947L52.9525 50.8426C51.9239 51.8712 51.4121 53.1992 51.4121 54.8168H51.6271ZM53.1046 50.9947C54.0882 50.0111 55.3507 49.5172 56.9016 49.5172V49.3021C55.3004 49.3021 53.981 49.8142 52.9525 50.8426L53.1046 50.9947ZM56.9016 49.5172C58.4022 49.5172 59.6492 49.9944 60.6503 50.9463L60.7985 50.7904C59.754 49.7973 58.4525 49.3021 56.9016 49.3021V49.5172ZM60.6503 50.9463C61.6496 51.8964 62.151 53.1247 62.151 54.6408H62.366C62.366 53.0718 61.8447 51.7852 60.7985 50.7904L60.6503 50.9463ZM62.151 54.6408C62.151 56.1544 61.542 57.827 60.3082 59.661L60.4866 59.781C61.7343 57.9264 62.366 56.2122 62.366 54.6408H62.151ZM60.3082 59.6609L56.2591 65.6717L56.4375 65.7919L60.4866 59.7811L60.3082 59.6609ZM56.4121 65.6452L54.5007 64.2368L54.3732 64.41L56.2845 65.8183L56.4121 65.6452ZM54.0025 54.7414C54.0025 55.6355 54.261 56.4139 54.7801 57.0715L54.9489 56.9382C54.462 56.3215 54.2175 55.591 54.2175 54.7414H54.0025ZM54.7812 57.0728C55.3223 57.7361 56.0409 58.0681 56.9268 58.0681V57.853C56.1025 57.853 55.4462 57.5478 54.9478 56.9369L54.7812 57.0728ZM56.9268 58.0681C57.8127 58.0681 58.5237 57.736 59.0483 57.0715L58.8795 56.9382C58.3981 57.548 57.751 57.853 56.9268 57.853V58.0681ZM59.0481 57.0718C59.584 56.3976 59.8511 55.6023 59.8511 54.6911H59.636C59.636 55.5571 59.3833 56.3043 58.8797 56.9379L59.0481 57.0718ZM59.8511 54.6911C59.8511 53.7807 59.5929 52.9938 59.0734 52.3358L58.9046 52.4691C59.3912 53.0854 59.636 53.8242 59.636 54.6911H59.8511ZM59.0734 52.3358C58.5484 51.6707 57.8287 51.3392 56.9268 51.3392V51.5543C57.7685 51.5543 58.4237 51.8599 58.9046 52.4691L59.0734 52.3358ZM56.9268 51.3392C56.0398 51.3392 55.321 51.6804 54.7803 52.3607L54.9487 52.4945C55.4475 51.867 56.1036 51.5543 56.9268 51.5543V51.3392ZM54.7793 52.362C54.2607 53.0362 54.0025 53.831 54.0025 54.7414H54.2175C54.2175 53.8745 54.4623 53.1268 54.9497 52.4932L54.7793 52.362ZM65.6246 52.0001H65.5171V52.1076H65.6246V52.0001ZM65.6246 49.812V49.7045H65.5171V49.812H65.6246ZM70.403 49.812H70.5106V49.7045H70.403V49.812ZM70.403 65.0779V65.1854H70.5106V65.0779H70.403ZM67.8126 65.0779H67.7051V65.1854H67.8126V65.0779ZM67.8126 52.0001H67.9202V51.8925H67.8126V52.0001ZM65.7322 52.0001V49.812H65.5171V52.0001H65.7322ZM65.6246 49.9196H70.403V49.7045H65.6246V49.9196ZM70.2955 49.812V65.0779H70.5106V49.812H70.2955ZM70.403 64.9703H67.8126V65.1854H70.403V64.9703ZM67.9202 65.0779V52.0001H67.7051V65.0779H67.9202ZM67.8126 51.8925H65.6246V52.1076H67.8126V51.8925Z" fill="url(#paint5_linear_1152_6947)" mask="url(#path-5-outside-1_1152_6947)"/>
</g>
<defs>
<linearGradient id="paint0_linear_1152_6947" x1="0" y1="26.0867" x2="25.0734" y2="27.0942" gradientUnits="userSpaceOnUse">
<stop stop-color="#F9BC2E"/>
<stop offset="0.132392" stop-color="#E29A1E"/>
<stop offset="0.302201" stop-color="#FFCD38"/>
<stop offset="0.728712" stop-color="#F0AF30"/>
<stop offset="0.834676" stop-color="#E29A1E"/>
<stop offset="0.960427" stop-color="#FFCD38"/>
<stop offset="1" stop-color="#DD931A"/>
</linearGradient>
<linearGradient id="paint1_linear_1152_6947" x1="74.4341" y1="39.87" x2="49.3607" y2="38.8624" gradientUnits="userSpaceOnUse">
<stop stop-color="#F9BC2E"/>
<stop offset="0.132392" stop-color="#E29A1E"/>
<stop offset="0.302201" stop-color="#FFCD38"/>
<stop offset="0.728712" stop-color="#F0AF30"/>
<stop offset="0.834676" stop-color="#E29A1E"/>
<stop offset="0.960427" stop-color="#FFCD38"/>
<stop offset="1" stop-color="#DD931A"/>
</linearGradient>
<linearGradient id="paint2_linear_1152_6947" x1="6.00293" y1="3.45483" x2="27.955" y2="4.95899" gradientUnits="userSpaceOnUse">
<stop stop-color="#F9BC2E"/>
<stop offset="0.132392" stop-color="#E29A1E"/>
<stop offset="0.302201" stop-color="#FFCD38"/>
<stop offset="0.728712" stop-color="#F0AF30"/>
<stop offset="0.834676" stop-color="#E29A1E"/>
<stop offset="0.960427" stop-color="#FFCD38"/>
<stop offset="1" stop-color="#DD931A"/>
</linearGradient>
<linearGradient id="paint3_linear_1152_6947" x1="26.5625" y1="0.306274" x2="49.572" y2="0.821012" gradientUnits="userSpaceOnUse">
<stop stop-color="#F9BC2E"/>
<stop offset="0.132392" stop-color="#E29A1E"/>
<stop offset="0.302201" stop-color="#FFCD38"/>
<stop offset="0.728712" stop-color="#F0AF30"/>
<stop offset="0.834676" stop-color="#E29A1E"/>
<stop offset="0.960427" stop-color="#FFCD38"/>
<stop offset="1" stop-color="#DD931A"/>
</linearGradient>
<linearGradient id="paint4_linear_1152_6947" x1="50.9915" y1="44.0779" x2="76.6268" y2="45.7621" gradientUnits="userSpaceOnUse">
<stop stop-color="#F9BC2E"/>
<stop offset="0.132392" stop-color="#E29A1E"/>
<stop offset="0.302201" stop-color="#FFCD38"/>
<stop offset="0.728712" stop-color="#F0AF30"/>
<stop offset="0.834676" stop-color="#E29A1E"/>
<stop offset="0.960427" stop-color="#FFCD38"/>
<stop offset="1" stop-color="#DD931A"/>
</linearGradient>
<linearGradient id="paint5_linear_1152_6947" x1="50.9915" y1="44.0779" x2="76.6268" y2="45.7621" gradientUnits="userSpaceOnUse">
<stop stop-color="#F9BC2E"/>
<stop offset="0.132392" stop-color="#E29A1E"/>
<stop offset="0.302201" stop-color="#FFCD38"/>
<stop offset="0.728712" stop-color="#F0AF30"/>
<stop offset="0.834676" stop-color="#E29A1E"/>
<stop offset="0.960427" stop-color="#FFCD38"/>
<stop offset="1" stop-color="#DD931A"/>
</linearGradient>
<clipPath id="clip0_1152_6947">
<rect width="75" height="69" fill="white"/>
</clipPath>
</defs>
</svg>
